<svg xmlns="http://www.w3.org/2000/svg" width="2400" height="2400" viewBox="0 0 2400 2400"><rect width="2400" height="2400" fill="#08080A" /><g shape-rendering="crispEdges"><rect x="164" y="0" width="54" height="55" fill="#f7be00" /><rect x="273" y="0" width="54" height="55" fill="#e200d5" /><rect x="327" y="0" width="55" height="55" fill="#2a0ea2" /><rect x="382" y="0" width="54" height="55" fill="#00c4fa" /><rect x="545" y="0" width="55" height="55" fill="#00c4fa" /><rect x="655" y="0" width="54" height="55" fill="#2b75f0" /><rect x="273" y="55" width="54" height="54" fill="#da00cd" /><rect x="491" y="55" width="54" height="54" fill="#00c3f8" /><rect x="218" y="109" width="55" height="55" fill="#f3dd00" /><rect x="273" y="109" width="54" height="55" fill="#fec300" /><rect x="327" y="109" width="55" height="55" fill="#db00ce" /><rect x="382" y="109" width="54" height="55" fill="#00c0f4" /><rect x="545" y="109" width="55" height="55" fill="#570fab" /><rect x="600" y="109" width="55" height="55" fill="#290e9e" /><rect x="164" y="164" width="54" height="54" fill="#fbc100" /><rect x="218" y="164" width="55" height="54" fill="#fec300" /><rect x="273" y="164" width="54" height="54" fill="#e000d2" /><rect x="327" y="164" width="55" height="54" fill="#00c4f9" /><rect x="382" y="164" width="54" height="54" fill="#2a0fa6" /><rect x="600" y="164" width="55" height="54" fill="#2b0fa8" /><rect x="273" y="218" width="54" height="55" fill="#fb9b00" /><rect x="327" y="218" width="55" height="55" fill="#e400d6" /><rect x="382" y="218" width="54" height="55" fill="#fa3a00" /><rect x="436" y="218" width="55" height="55" fill="#f83900" /><rect x="491" y="218" width="54" height="55" fill="#00c6fc" /><rect x="218" y="273" width="55" height="54" fill="#fa9b00" /><rect x="273" y="273" width="54" height="54" fill="#f69900" /><rect x="327" y="273" width="55" height="54" fill="#f83900" /><rect x="382" y="273" width="54" height="54" fill="#f13800" /><rect x="436" y="273" width="55" height="54" fill="#2d7afa" /><rect x="491" y="273" width="54" height="54" fill="#2c77f4" /><rect x="218" y="327" width="55" height="55" fill="#fa9b00" /><rect x="273" y="327" width="54" height="55" fill="#f49700" /><rect x="382" y="327" width="54" height="55" fill="#2a0ea2" /><rect x="436" y="327" width="55" height="55" fill="#2d79f9" /><rect x="218" y="382" width="55" height="54" fill="#f2dc00" /><rect x="273" y="382" width="54" height="54" fill="#fc00a6" /><rect x="327" y="382" width="55" height="54" fill="#2d7afc" /><rect x="382" y="382" width="54" height="54" fill="#2b0fa7" /><rect x="436" y="382" width="55" height="54" fill="#2b0fa8" /><rect x="491" y="382" width="54" height="54" fill="#290e9f" /><rect x="218" y="436" width="55" height="55" fill="#fd9d00" /><rect x="273" y="436" width="54" height="55" fill="#2d7bfc" /><rect x="327" y="436" width="55" height="55" fill="#2d7afa" /><rect x="382" y="436" width="54" height="55" fill="#f73900" /><rect x="436" y="436" width="55" height="55" fill="#550ea6" /><rect x="164" y="491" width="54" height="54" fill="#ff9e00" /><rect x="218" y="491" width="55" height="54" fill="#fa9b00" /><rect x="273" y="491" width="54" height="54" fill="#db00cd" /><rect x="327" y="491" width="55" height="54" fill="#df00d2" /><rect x="382" y="491" width="54" height="54" fill="#0035f2" /><rect x="436" y="491" width="55" height="54" fill="#290e9f" /><rect x="218" y="545" width="55" height="55" fill="#fd9c00" /><rect x="273" y="545" width="54" height="55" fill="#fb9c00" /><rect x="327" y="545" width="55" height="55" fill="#580fad" /><rect x="436" y="545" width="55" height="55" fill="#0035f0" /><rect x="491" y="545" width="54" height="55" fill="#00bef3" /><rect x="600" y="545" width="55" height="55" fill="#0035f0" /><rect x="273" y="600" width="54" height="55" fill="#d900cc" /><rect x="327" y="600" width="55" height="55" fill="#0036f5" /><rect x="382" y="600" width="54" height="55" fill="#0036f4" /><rect x="436" y="600" width="55" height="55" fill="#e200d4" /><rect x="491" y="600" width="54" height="55" fill="#550ea7" /><rect x="545" y="600" width="55" height="55" fill="#0037f9" /><rect x="218" y="655" width="55" height="54" fill="#fa9b00" /><rect x="273" y="655" width="54" height="54" fill="#da00cd" /><rect x="327" y="655" width="55" height="54" fill="#df00d1" /><rect x="382" y="655" width="54" height="54" fill="#590fae" /><rect x="436" y="655" width="55" height="54" fill="#590fae" /><rect x="164" y="709" width="54" height="55" fill="#fe9e00" /><rect x="218" y="709" width="55" height="55" fill="#df00d1" /><rect x="273" y="709" width="54" height="55" fill="#fc2c54" /><rect x="327" y="709" width="55" height="55" fill="#0038fd" /><rect x="382" y="709" width="54" height="55" fill="#e100d4" /><rect x="436" y="709" width="55" height="55" fill="#560ea8" /><rect x="491" y="709" width="54" height="55" fill="#550ea6" /><rect x="655" y="709" width="54" height="55" fill="#f900a4" /><rect x="982" y="709" width="54" height="55" fill="#de00d1" /><rect x="1309" y="709" width="55" height="55" fill="#00c1f6" /><rect x="218" y="764" width="55" height="54" fill="#f9c000" /><rect x="273" y="764" width="54" height="54" fill="#f6bd00" /><rect x="327" y="764" width="55" height="54" fill="#f700a3" /><rect x="382" y="764" width="54" height="54" fill="#550ea7" /><rect x="436" y="764" width="55" height="54" fill="#00bef2" /><rect x="491" y="764" width="54" height="54" fill="#590faf" /><rect x="709" y="764" width="55" height="54" fill="#00c4fa" /><rect x="218" y="818" width="55" height="55" fill="#fdc200" /><rect x="273" y="818" width="54" height="55" fill="#fec300" /><rect x="327" y="818" width="55" height="55" fill="#f0009e" /><rect x="382" y="818" width="54" height="55" fill="#00c2f8" /><rect x="436" y="818" width="55" height="55" fill="#fa00a5" /><rect x="491" y="818" width="54" height="55" fill="#00bef2" /><rect x="1145" y="818" width="55" height="55" fill="#00c1f7" /><rect x="1200" y="818" width="55" height="55" fill="#550ea7" /><rect x="1473" y="818" width="54" height="55" fill="#560ea9" /><rect x="327" y="873" width="55" height="54" fill="#fcc100" /><rect x="382" y="873" width="54" height="54" fill="#ff2d55" /><rect x="436" y="873" width="55" height="54" fill="#f600a2" /><rect x="491" y="873" width="54" height="54" fill="#00c7fd" /><rect x="545" y="873" width="55" height="54" fill="#5a0faf" /><rect x="873" y="873" width="54" height="54" fill="#dc00cf" /><rect x="927" y="873" width="55" height="54" fill="#00c1f6" /><rect x="982" y="873" width="54" height="54" fill="#e300d6" /><rect x="1036" y="873" width="55" height="54" fill="#dd00cf" /><rect x="1091" y="873" width="54" height="54" fill="#00c6fd" /><rect x="1145" y="873" width="55" height="54" fill="#00bef3" /><rect x="1200" y="873" width="55" height="54" fill="#dc00ce" /><rect x="1255" y="873" width="54" height="54" fill="#5a0fb0" /><rect x="1309" y="873" width="55" height="54" fill="#00bff4" /><rect x="1364" y="873" width="54" height="54" fill="#00c8fe" /><rect x="1473" y="873" width="54" height="54" fill="#00bef2" /><rect x="1527" y="873" width="55" height="54" fill="#570eaa" /><rect x="382" y="927" width="54" height="55" fill="#fb00a5" /><rect x="436" y="927" width="55" height="55" fill="#ff3b00" /><rect x="491" y="927" width="54" height="55" fill="#fb00a5" /><rect x="600" y="927" width="55" height="55" fill="#371dce" /><rect x="764" y="927" width="54" height="55" fill="#570fab" /><rect x="873" y="927" width="54" height="55" fill="#e000d2" /><rect x="927" y="927" width="55" height="55" fill="#00bff4" /><rect x="982" y="927" width="54" height="55" fill="#de00d0" /><rect x="1036" y="927" width="55" height="55" fill="#fdc300" /><rect x="1091" y="927" width="54" height="55" fill="#00c4fa" /><rect x="1145" y="927" width="55" height="55" fill="#dc00cf" /><rect x="1200" y="927" width="55" height="55" fill="#00c1f6" /><rect x="1255" y="927" width="54" height="55" fill="#d800cb" /><rect x="1309" y="927" width="55" height="55" fill="#00c5fb" /><rect x="1364" y="927" width="54" height="55" fill="#dd00d0" /><rect x="1418" y="927" width="55" height="55" fill="#00bef2" /><rect x="1473" y="927" width="54" height="55" fill="#560ea9" /><rect x="1527" y="927" width="55" height="55" fill="#00bff3" /><rect x="273" y="982" width="54" height="54" fill="#f5bc00" /><rect x="382" y="982" width="54" height="54" fill="#f2ba00" /><rect x="436" y="982" width="55" height="54" fill="#fe2d55" /><rect x="491" y="982" width="54" height="54" fill="#381dd1" /><rect x="545" y="982" width="55" height="54" fill="#f23800" /><rect x="600" y="982" width="55" height="54" fill="#6a2bd9" /><rect x="709" y="982" width="55" height="54" fill="#550ea7" /><rect x="818" y="982" width="55" height="54" fill="#2a0fa6" /><rect x="873" y="982" width="54" height="54" fill="#fcc100" /><rect x="927" y="982" width="55" height="54" fill="#f2ba00" /><rect x="982" y="982" width="54" height="54" fill="#e300d5" /><rect x="1036" y="982" width="55" height="54" fill="#00c5fb" /><rect x="1091" y="982" width="54" height="54" fill="#e100d3" /><rect x="1145" y="982" width="55" height="54" fill="#580fac" /><rect x="1200" y="982" width="55" height="54" fill="#f2ba00" /><rect x="1255" y="982" width="54" height="54" fill="#de00d0" /><rect x="1309" y="982" width="55" height="54" fill="#fcc100" /><rect x="1364" y="982" width="54" height="54" fill="#00c0f5" /><rect x="1418" y="982" width="55" height="54" fill="#2c77f4" /><rect x="382" y="1036" width="54" height="55" fill="#f89a00" /><rect x="436" y="1036" width="55" height="55" fill="#f23800" /><rect x="491" y="1036" width="54" height="55" fill="#00c8fe" /><rect x="545" y="1036" width="55" height="55" fill="#fa3a00" /><rect x="600" y="1036" width="55" height="55" fill="#0037fc" /><rect x="709" y="1036" width="55" height="55" fill="#570ea9" /><rect x="764" y="1036" width="54" height="55" fill="#570eaa" /><rect x="818" y="1036" width="55" height="55" fill="#550ea7" /><rect x="873" y="1036" width="54" height="55" fill="#da00cd" /><rect x="927" y="1036" width="55" height="55" fill="#f99a00" /><rect x="982" y="1036" width="54" height="55" fill="#fc2c54" /><rect x="1036" y="1036" width="55" height="55" fill="#da00cd" /><rect x="1091" y="1036" width="54" height="55" fill="#e300d5" /><rect x="1145" y="1036" width="55" height="55" fill="#f2ba00" /><rect x="1200" y="1036" width="55" height="55" fill="#dc00cf" /><rect x="1255" y="1036" width="54" height="55" fill="#dc00cf" /><rect x="1309" y="1036" width="55" height="55" fill="#e100d4" /><rect x="1364" y="1036" width="54" height="55" fill="#f7be00" /><rect x="1418" y="1036" width="55" height="55" fill="#570faa" /><rect x="1473" y="1036" width="54" height="55" fill="#00bef2" /><rect x="1527" y="1036" width="55" height="55" fill="#00c7fe" /><rect x="1582" y="1036" width="54" height="55" fill="#00c7fe" /><rect x="1800" y="1036" width="55" height="55" fill="#d900cc" /><rect x="327" y="1091" width="55" height="54" fill="#f3bb00" /><rect x="382" y="1091" width="54" height="54" fill="#fd2d54" /><rect x="436" y="1091" width="55" height="54" fill="#e400d6" /><rect x="491" y="1091" width="54" height="54" fill="#f9bf00" /><rect x="545" y="1091" width="55" height="54" fill="#371ccc" /><rect x="600" y="1091" width="55" height="54" fill="#391dd3" /><rect x="655" y="1091" width="54" height="54" fill="#590fad" /><rect x="709" y="1091" width="55" height="54" fill="#550ea7" /><rect x="764" y="1091" width="54" height="54" fill="#00bff4" /><rect x="818" y="1091" width="55" height="54" fill="#e000d2" /><rect x="873" y="1091" width="54" height="54" fill="#fe00a7" /><rect x="927" y="1091" width="55" height="54" fill="#fcc200" /><rect x="982" y="1091" width="54" height="54" fill="#ffe800" /><rect x="1036" y="1091" width="55" height="54" fill="#e100d4" /><rect x="1091" y="1091" width="54" height="54" fill="#fec300" /><rect x="1309" y="1091" width="55" height="54" fill="#ffc400" /><rect x="1418" y="1091" width="55" height="54" fill="#f4bc00" /><rect x="1473" y="1091" width="54" height="54" fill="#dd00d0" /><rect x="1527" y="1091" width="55" height="54" fill="#f4bb00" /><rect x="1582" y="1091" width="54" height="54" fill="#00c7fd" /><rect x="1636" y="1091" width="55" height="54" fill="#00bff4" /><rect x="382" y="1145" width="54" height="55" fill="#f5bc00" /><rect x="491" y="1145" width="54" height="55" fill="#f8be00" /><rect x="655" y="1145" width="54" height="55" fill="#00bef2" /><rect x="709" y="1145" width="55" height="55" fill="#00c5fc" /><rect x="764" y="1145" width="54" height="55" fill="#d900cc" /><rect x="818" y="1145" width="55" height="55" fill="#d900cc" /><rect x="873" y="1145" width="54" height="55" fill="#df00d2" /><rect x="927" y="1145" width="55" height="55" fill="#f7e100" /><rect x="1145" y="1145" width="55" height="55" fill="#f7be00" /><rect x="1418" y="1145" width="55" height="55" fill="#f2ba00" /><rect x="1473" y="1145" width="54" height="55" fill="#f6bd00" /><rect x="1527" y="1145" width="55" height="55" fill="#d900cc" /><rect x="1582" y="1145" width="54" height="55" fill="#e100d3" /><rect x="1636" y="1145" width="55" height="55" fill="#00c7fe" /><rect x="1691" y="1145" width="54" height="55" fill="#00c3f9" /><rect x="491" y="1200" width="54" height="55" fill="#f0b900" /><rect x="545" y="1200" width="55" height="55" fill="#fcc200" /><rect x="600" y="1200" width="55" height="55" fill="#fe2d55" /><rect x="709" y="1200" width="55" height="55" fill="#00bdf1" /><rect x="764" y="1200" width="54" height="55" fill="#f7be00" /><rect x="818" y="1200" width="55" height="55" fill="#f7be00" /><rect x="927" y="1200" width="55" height="55" fill="#fdc200" /><rect x="1091" y="1200" width="54" height="55" fill="#f3bb00" /><rect x="1200" y="1200" width="55" height="55" fill="#fbc100" /><rect x="1255" y="1200" width="54" height="55" fill="#f6bd00" /><rect x="1364" y="1200" width="54" height="55" fill="#fdc200" /><rect x="1418" y="1200" width="55" height="55" fill="#fe2d55" /><rect x="1473" y="1200" width="54" height="55" fill="#dd00d0" /><rect x="1527" y="1200" width="55" height="55" fill="#590fad" /><rect x="1636" y="1200" width="55" height="55" fill="#550ea6" /><rect x="1691" y="1200" width="54" height="55" fill="#00c6fc" /><rect x="545" y="1255" width="55" height="54" fill="#fac000" /><rect x="600" y="1255" width="55" height="54" fill="#f13800" /><rect x="655" y="1255" width="54" height="54" fill="#590faf" /><rect x="709" y="1255" width="55" height="54" fill="#570fab" /><rect x="764" y="1255" width="54" height="54" fill="#fcc200" /><rect x="818" y="1255" width="55" height="54" fill="#f9c000" /><rect x="927" y="1255" width="55" height="54" fill="#f5bc00" /><rect x="1091" y="1255" width="54" height="54" fill="#f0b900" /><rect x="1255" y="1255" width="54" height="54" fill="#f0b900" /><rect x="1364" y="1255" width="54" height="54" fill="#f7e100" /><rect x="1418" y="1255" width="55" height="54" fill="#f1b900" /><rect x="1473" y="1255" width="54" height="54" fill="#fbc100" /><rect x="1527" y="1255" width="55" height="54" fill="#00bef3" /><rect x="1582" y="1255" width="54" height="54" fill="#6529ce" /><rect x="1636" y="1255" width="55" height="54" fill="#df00d1" /><rect x="1691" y="1255" width="54" height="54" fill="#00c6fd" /><rect x="1745" y="1255" width="55" height="54" fill="#f33800" /><rect x="2127" y="1255" width="55" height="54" fill="#381dd2" /><rect x="0" y="1309" width="55" height="55" fill="#f63900" /><rect x="55" y="1309" width="54" height="55" fill="#f13800" /><rect x="382" y="1309" width="54" height="55" fill="#fdc300" /><rect x="491" y="1309" width="54" height="55" fill="#f2ba00" /><rect x="545" y="1309" width="55" height="55" fill="#f63900" /><rect x="600" y="1309" width="55" height="55" fill="#00bff3" /><rect x="655" y="1309" width="54" height="55" fill="#590faf" /><rect x="709" y="1309" width="55" height="55" fill="#de00d1" /><rect x="764" y="1309" width="54" height="55" fill="#dc00cf" /><rect x="818" y="1309" width="55" height="55" fill="#d800cb" /><rect x="873" y="1309" width="54" height="55" fill="#f0b900" /><rect x="1364" y="1309" width="54" height="55" fill="#f3bb00" /><rect x="1418" y="1309" width="55" height="55" fill="#f1b900" /><rect x="1473" y="1309" width="54" height="55" fill="#e300d5" /><rect x="1527" y="1309" width="55" height="55" fill="#f1b900" /><rect x="1582" y="1309" width="54" height="55" fill="#f8bf00" /><rect x="1636" y="1309" width="55" height="55" fill="#00c2f7" /><rect x="1691" y="1309" width="54" height="55" fill="#00c4fa" /><rect x="1964" y="1309" width="54" height="55" fill="#391ed6" /><rect x="0" y="1364" width="55" height="54" fill="#f83900" /><rect x="55" y="1364" width="54" height="54" fill="#fe3b00" /><rect x="327" y="1364" width="55" height="54" fill="#fcc200" /><rect x="382" y="1364" width="54" height="54" fill="#f4bc00" /><rect x="545" y="1364" width="55" height="54" fill="#fa3a00" /><rect x="600" y="1364" width="55" height="54" fill="#f53900" /><rect x="655" y="1364" width="54" height="54" fill="#560ea7" /><rect x="709" y="1364" width="55" height="54" fill="#590fad" /><rect x="764" y="1364" width="54" height="54" fill="#fd00a7" /><rect x="818" y="1364" width="55" height="54" fill="#fe3b00" /><rect x="873" y="1364" width="54" height="54" fill="#fe00a7" /><rect x="927" y="1364" width="55" height="54" fill="#f9e300" /><rect x="1309" y="1364" width="55" height="54" fill="#f5bd00" /><rect x="1364" y="1364" width="54" height="54" fill="#f3bb00" /><rect x="1418" y="1364" width="55" height="54" fill="#fdc200" /><rect x="1473" y="1364" width="54" height="54" fill="#f4bb00" /><rect x="1527" y="1364" width="55" height="54" fill="#f69900" /><rect x="1582" y="1364" width="54" height="54" fill="#e100d3" /><rect x="1636" y="1364" width="55" height="54" fill="#f03800" /><rect x="1691" y="1364" width="54" height="54" fill="#6529cf" /><rect x="1745" y="1364" width="55" height="54" fill="#381dd1" /><rect x="0" y="1418" width="55" height="55" fill="#00c7fe" /><rect x="55" y="1418" width="54" height="55" fill="#f1db00" /><rect x="436" y="1418" width="55" height="55" fill="#f03800" /><rect x="491" y="1418" width="54" height="55" fill="#f93a00" /><rect x="545" y="1418" width="55" height="55" fill="#f83900" /><rect x="600" y="1418" width="55" height="55" fill="#00bdf1" /><rect x="655" y="1418" width="54" height="55" fill="#560ea9" /><rect x="709" y="1418" width="55" height="55" fill="#df00d1" /><rect x="764" y="1418" width="54" height="55" fill="#fdc200" /><rect x="927" y="1418" width="55" height="55" fill="#f2ba00" /><rect x="982" y="1418" width="54" height="55" fill="#f7be00" /><rect x="1473" y="1418" width="54" height="55" fill="#f3bb00" /><rect x="1582" y="1418" width="54" height="55" fill="#f43800" /><rect x="1636" y="1418" width="55" height="55" fill="#00c3f9" /><rect x="1691" y="1418" width="54" height="55" fill="#fe00a8" /><rect x="1855" y="1418" width="54" height="55" fill="#2b0fa7" /><rect x="2018" y="1418" width="55" height="55" fill="#3a1ed8" /><rect x="2073" y="1418" width="54" height="55" fill="#381dcf" /><rect x="0" y="1473" width="55" height="54" fill="#f13800" /><rect x="55" y="1473" width="54" height="54" fill="#f63900" /><rect x="109" y="1473" width="55" height="54" fill="#fcc100" /><rect x="218" y="1473" width="55" height="54" fill="#fdc200" /><rect x="327" y="1473" width="55" height="54" fill="#f0b800" /><rect x="436" y="1473" width="55" height="54" fill="#00c4fa" /><rect x="491" y="1473" width="54" height="54" fill="#00bdf1" /><rect x="545" y="1473" width="55" height="54" fill="#672ad3" /><rect x="600" y="1473" width="55" height="54" fill="#2c76f2" /><rect x="655" y="1473" width="54" height="54" fill="#00c2f8" /><rect x="709" y="1473" width="55" height="54" fill="#00c3f8" /><rect x="764" y="1473" width="54" height="54" fill="#f6e000" /><rect x="982" y="1473" width="54" height="54" fill="#fcc200" /><rect x="1527" y="1473" width="55" height="54" fill="#f19500" /><rect x="1582" y="1473" width="54" height="54" fill="#f39700" /><rect x="1636" y="1473" width="55" height="54" fill="#f13800" /><rect x="1691" y="1473" width="54" height="54" fill="#fc00a6" /><rect x="1745" y="1473" width="55" height="54" fill="#381dd1" /><rect x="1800" y="1473" width="55" height="54" fill="#00c2f8" /><rect x="1855" y="1473" width="54" height="54" fill="#00c5fc" /><rect x="1909" y="1473" width="55" height="54" fill="#0036f5" /><rect x="1964" y="1473" width="54" height="54" fill="#0037fa" /><rect x="2018" y="1473" width="55" height="54" fill="#391dd4" /><rect x="2073" y="1473" width="54" height="54" fill="#0037fb" /><rect x="2127" y="1473" width="55" height="54" fill="#550ea6" /><rect x="0" y="1527" width="55" height="55" fill="#f29600" /><rect x="55" y="1527" width="54" height="55" fill="#f39700" /><rect x="109" y="1527" width="55" height="55" fill="#f39600" /><rect x="164" y="1527" width="54" height="55" fill="#f29600" /><rect x="218" y="1527" width="55" height="55" fill="#fac000" /><rect x="273" y="1527" width="54" height="55" fill="#fbc100" /><rect x="327" y="1527" width="55" height="55" fill="#f43900" /><rect x="382" y="1527" width="54" height="55" fill="#fc2c54" /><rect x="436" y="1527" width="55" height="55" fill="#f9e300" /><rect x="491" y="1527" width="54" height="55" fill="#f400a1" /><rect x="545" y="1527" width="55" height="55" fill="#00bdf1" /><rect x="600" y="1527" width="55" height="55" fill="#6429cd" /><rect x="655" y="1527" width="54" height="55" fill="#682ad5" /><rect x="709" y="1527" width="55" height="55" fill="#dd00d0" /><rect x="764" y="1527" width="54" height="55" fill="#f9bf00" /><rect x="873" y="1527" width="54" height="55" fill="#f5df00" /><rect x="927" y="1527" width="55" height="55" fill="#da00cd" /><rect x="1527" y="1527" width="55" height="55" fill="#fb9c00" /><rect x="1582" y="1527" width="54" height="55" fill="#fc9c00" /><rect x="1636" y="1527" width="55" height="55" fill="#2e7bfd" /><rect x="1691" y="1527" width="54" height="55" fill="#371ccc" /><rect x="1745" y="1527" width="55" height="55" fill="#00c7fd" /><rect x="1800" y="1527" width="55" height="55" fill="#fc3a00" /><rect x="1855" y="1527" width="54" height="55" fill="#fa3a00" /><rect x="1909" y="1527" width="55" height="55" fill="#f93a00" /><rect x="2073" y="1527" width="54" height="55" fill="#00c0f5" /><rect x="2127" y="1527" width="55" height="55" fill="#00bef2" /><rect x="0" y="1582" width="55" height="54" fill="#fd9d00" /><rect x="55" y="1582" width="54" height="54" fill="#fb3a00" /><rect x="109" y="1582" width="55" height="54" fill="#ff9e00" /><rect x="273" y="1582" width="54" height="54" fill="#f43900" /><rect x="327" y="1582" width="55" height="54" fill="#fc00a6" /><rect x="382" y="1582" width="54" height="54" fill="#fa00a5" /><rect x="436" y="1582" width="55" height="54" fill="#f5df00" /><rect x="491" y="1582" width="54" height="54" fill="#fa00a5" /><rect x="545" y="1582" width="55" height="54" fill="#fc00a6" /><rect x="600" y="1582" width="55" height="54" fill="#672ad3" /><rect x="655" y="1582" width="54" height="54" fill="#f5df00" /><rect x="709" y="1582" width="55" height="54" fill="#f6bd00" /><rect x="764" y="1582" width="54" height="54" fill="#f0b900" /><rect x="818" y="1582" width="55" height="54" fill="#f4bc00" /><rect x="873" y="1582" width="54" height="54" fill="#fe00a7" /><rect x="927" y="1582" width="55" height="54" fill="#f6e000" /><rect x="1473" y="1582" width="54" height="54" fill="#f39700" /><rect x="1636" y="1582" width="55" height="54" fill="#00c1f6" /><rect x="1691" y="1582" width="54" height="54" fill="#00c4fa" /><rect x="1745" y="1582" width="55" height="54" fill="#f83900" /><rect x="1800" y="1582" width="55" height="54" fill="#f63900" /><rect x="1855" y="1582" width="54" height="54" fill="#f73900" /><rect x="1909" y="1582" width="55" height="54" fill="#0035f2" /><rect x="1964" y="1582" width="54" height="54" fill="#3a1ed7" /><rect x="2073" y="1582" width="54" height="54" fill="#00c4fa" /><rect x="2127" y="1582" width="55" height="54" fill="#00c4fa" /><rect x="2182" y="1582" width="54" height="54" fill="#560ea8" /><rect x="0" y="1636" width="55" height="55" fill="#f1b900" /><rect x="55" y="1636" width="54" height="55" fill="#fa9b00" /><rect x="273" y="1636" width="54" height="55" fill="#fb9c00" /><rect x="382" y="1636" width="54" height="55" fill="#f2dc00" /><rect x="436" y="1636" width="55" height="55" fill="#6428cc" /><rect x="491" y="1636" width="54" height="55" fill="#f900a4" /><rect x="545" y="1636" width="55" height="55" fill="#f400a1" /><rect x="600" y="1636" width="55" height="55" fill="#692bd8" /><rect x="655" y="1636" width="54" height="55" fill="#fd3b00" /><rect x="709" y="1636" width="55" height="55" fill="#f22b51" /><rect x="764" y="1636" width="54" height="55" fill="#f9e300" /><rect x="818" y="1636" width="55" height="55" fill="#f6bd00" /><rect x="873" y="1636" width="54" height="55" fill="#f39600" /><rect x="927" y="1636" width="55" height="55" fill="#fec300" /><rect x="982" y="1636" width="54" height="55" fill="#df00d2" /><rect x="1036" y="1636" width="55" height="55" fill="#fbc100" /><rect x="1473" y="1636" width="54" height="55" fill="#ff9e00" /><rect x="1691" y="1636" width="54" height="55" fill="#fe9d00" /><rect x="1745" y="1636" width="55" height="55" fill="#f4bc00" /><rect x="1800" y="1636" width="55" height="55" fill="#ff3b00" /><rect x="1855" y="1636" width="54" height="55" fill="#f93a00" /><rect x="1909" y="1636" width="55" height="55" fill="#0036f5" /><rect x="1964" y="1636" width="54" height="55" fill="#f43900" /><rect x="2018" y="1636" width="55" height="55" fill="#00bef2" /><rect x="2073" y="1636" width="54" height="55" fill="#580fac" /><rect x="2182" y="1636" width="54" height="55" fill="#00bcf0" /><rect x="218" y="1691" width="55" height="54" fill="#f1dc00" /><rect x="382" y="1691" width="54" height="54" fill="#fae300" /><rect x="436" y="1691" width="55" height="54" fill="#f800a3" /><rect x="491" y="1691" width="54" height="54" fill="#f9e300" /><rect x="545" y="1691" width="55" height="54" fill="#fce600" /><rect x="600" y="1691" width="55" height="54" fill="#00bff3" /><rect x="655" y="1691" width="54" height="54" fill="#fce500" /><rect x="709" y="1691" width="55" height="54" fill="#e500d7" /><rect x="764" y="1691" width="54" height="54" fill="#fcc200" /><rect x="927" y="1691" width="55" height="54" fill="#f1b900" /><rect x="982" y="1691" width="54" height="54" fill="#f8be00" /><rect x="1036" y="1691" width="55" height="54" fill="#fcc200" /><rect x="1691" y="1691" width="54" height="54" fill="#f4bb00" /><rect x="1745" y="1691" width="55" height="54" fill="#f49700" /><rect x="1800" y="1691" width="55" height="54" fill="#f73900" /><rect x="1855" y="1691" width="54" height="54" fill="#fdc300" /><rect x="1909" y="1691" width="55" height="54" fill="#682ad5" /><rect x="1964" y="1691" width="54" height="54" fill="#e400d6" /><rect x="2018" y="1691" width="55" height="54" fill="#f300a0" /><rect x="2127" y="1691" width="55" height="54" fill="#560ea8" /><rect x="2182" y="1691" width="54" height="54" fill="#550ea7" /><rect x="2236" y="1691" width="55" height="54" fill="#00bdf2" /><rect x="2291" y="1691" width="54" height="54" fill="#391dd4" /><rect x="2345" y="1691" width="55" height="54" fill="#381dd1" /><rect x="273" y="1745" width="54" height="55" fill="#fdc200" /><rect x="545" y="1745" width="55" height="55" fill="#fbe500" /><rect x="600" y="1745" width="55" height="55" fill="#f400a1" /><rect x="655" y="1745" width="54" height="55" fill="#fec300" /><rect x="709" y="1745" width="55" height="55" fill="#f62b52" /><rect x="764" y="1745" width="54" height="55" fill="#e500d7" /><rect x="818" y="1745" width="55" height="55" fill="#fbc100" /><rect x="982" y="1745" width="54" height="55" fill="#f29600" /><rect x="1527" y="1745" width="55" height="55" fill="#f59800" /><rect x="1582" y="1745" width="54" height="55" fill="#f49700" /><rect x="1745" y="1745" width="55" height="55" fill="#fac000" /><rect x="1800" y="1745" width="55" height="55" fill="#f63900" /><rect x="1855" y="1745" width="54" height="55" fill="#fe9e00" /><rect x="1909" y="1745" width="55" height="55" fill="#f73900" /><rect x="1964" y="1745" width="54" height="55" fill="#e400d6" /><rect x="2018" y="1745" width="55" height="55" fill="#f700a3" /><rect x="2073" y="1745" width="54" height="55" fill="#f1009f" /><rect x="2127" y="1745" width="55" height="55" fill="#f300a0" /><rect x="2182" y="1745" width="54" height="55" fill="#00c1f6" /><rect x="2236" y="1745" width="55" height="55" fill="#00c0f5" /><rect x="2291" y="1745" width="54" height="55" fill="#2a0fa4" /><rect x="2345" y="1745" width="55" height="55" fill="#391dd3" /><rect x="545" y="1800" width="55" height="55" fill="#fce500" /><rect x="600" y="1800" width="55" height="55" fill="#f3dd00" /><rect x="655" y="1800" width="54" height="55" fill="#e500d7" /><rect x="709" y="1800" width="55" height="55" fill="#f6bd00" /><rect x="818" y="1800" width="55" height="55" fill="#fec300" /><rect x="873" y="1800" width="54" height="55" fill="#fcc200" /><rect x="927" y="1800" width="55" height="55" fill="#fcc200" /><rect x="982" y="1800" width="54" height="55" fill="#fb9c00" /><rect x="1036" y="1800" width="55" height="55" fill="#ff9e00" /><rect x="1582" y="1800" width="54" height="55" fill="#f6bd00" /><rect x="1745" y="1800" width="55" height="55" fill="#ffc400" /><rect x="1800" y="1800" width="55" height="55" fill="#fdc300" /><rect x="1855" y="1800" width="54" height="55" fill="#fa9b00" /><rect x="1964" y="1800" width="54" height="55" fill="#f1b900" /><rect x="2018" y="1800" width="55" height="55" fill="#ff2d55" /><rect x="2073" y="1800" width="54" height="55" fill="#00bff3" /><rect x="2127" y="1800" width="55" height="55" fill="#f600a2" /><rect x="2182" y="1800" width="54" height="55" fill="#00bdf1" /><rect x="2236" y="1800" width="55" height="55" fill="#f02a50" /><rect x="2291" y="1800" width="54" height="55" fill="#00c5fc" /><rect x="2345" y="1800" width="55" height="55" fill="#00c7fd" /><rect x="764" y="1855" width="54" height="54" fill="#f3bb00" /><rect x="818" y="1855" width="55" height="54" fill="#fdc200" /><rect x="982" y="1855" width="54" height="54" fill="#fe2d55" /><rect x="1036" y="1855" width="55" height="54" fill="#f29600" /><rect x="1636" y="1855" width="55" height="54" fill="#fc9c00" /><rect x="1691" y="1855" width="54" height="54" fill="#f7be00" /><rect x="1745" y="1855" width="55" height="54" fill="#fe00a7" /><rect x="1800" y="1855" width="55" height="54" fill="#fcc100" /><rect x="1855" y="1855" width="54" height="54" fill="#fd2d54" /><rect x="1909" y="1855" width="55" height="54" fill="#f200a0" /><rect x="1964" y="1855" width="54" height="54" fill="#f6bd00" /><rect x="2018" y="1855" width="55" height="54" fill="#fbc100" /><rect x="2073" y="1855" width="54" height="54" fill="#f9c000" /><rect x="2127" y="1855" width="55" height="54" fill="#fd00a7" /><rect x="2182" y="1855" width="54" height="54" fill="#fa2c53" /><rect x="2236" y="1855" width="55" height="54" fill="#f32b51" /><rect x="2291" y="1855" width="54" height="54" fill="#fe00a7" /><rect x="2345" y="1855" width="55" height="54" fill="#00c1f5" /><rect x="982" y="1909" width="54" height="55" fill="#f62b52" /><rect x="1036" y="1909" width="55" height="55" fill="#f73900" /><rect x="1745" y="1909" width="55" height="55" fill="#f1b900" /><rect x="1800" y="1909" width="55" height="55" fill="#fe9d00" /><rect x="1855" y="1909" width="54" height="55" fill="#f5bd00" /><rect x="1909" y="1909" width="55" height="55" fill="#f1009f" /><rect x="1964" y="1909" width="54" height="55" fill="#fec300" /><rect x="2018" y="1909" width="55" height="55" fill="#f500a1" /><rect x="2073" y="1909" width="54" height="55" fill="#f9bf00" /><rect x="2182" y="1909" width="54" height="55" fill="#f42b51" /><rect x="2236" y="1909" width="55" height="55" fill="#00bcf0" /><rect x="2291" y="1909" width="54" height="55" fill="#f19500" /><rect x="2345" y="1909" width="55" height="55" fill="#f22b51" /><rect x="1036" y="1964" width="55" height="54" fill="#fbe500" /><rect x="1091" y="1964" width="54" height="54" fill="#f2dc00" /><rect x="2018" y="1964" width="55" height="54" fill="#f2ba00" /><rect x="2073" y="1964" width="54" height="54" fill="#f09500" /><rect x="2182" y="1964" width="54" height="54" fill="#f52b52" /><rect x="2236" y="1964" width="55" height="54" fill="#fe2d55" /><rect x="2291" y="1964" width="54" height="54" fill="#f42b51" /><rect x="2345" y="1964" width="55" height="54" fill="#e500d7" /><rect x="1909" y="2018" width="55" height="55" fill="#f6bd00" /><rect x="2182" y="2018" width="54" height="55" fill="#f89a00" /><rect x="2236" y="2018" width="55" height="55" fill="#f62b52" /><rect x="2291" y="2018" width="54" height="55" fill="#f62b52" /><rect x="2345" y="2018" width="55" height="55" fill="#fa2c53" /><rect x="2073" y="2073" width="54" height="54" fill="#f6bd00" /><rect x="2127" y="2073" width="55" height="54" fill="#fa9b00" /><rect x="2291" y="2073" width="54" height="54" fill="#fc9c00" /><rect x="2073" y="2127" width="54" height="55" fill="#ffc400" /><rect x="2127" y="2127" width="55" height="55" fill="#f8e100" /><rect x="0" y="2182" width="55" height="54" fill="#f39600" /><rect x="55" y="2182" width="54" height="54" fill="#f63900" /><rect x="2291" y="2182" width="54" height="54" fill="#ff9e00" /><rect x="2345" y="2182" width="55" height="54" fill="#fd9d00" /><rect x="0" y="2236" width="55" height="55" fill="#f13800" /><rect x="55" y="2236" width="54" height="55" fill="#f63900" /><rect x="164" y="2236" width="54" height="55" fill="#f4de00" /><rect x="273" y="2236" width="54" height="55" fill="#f1db00" /><rect x="327" y="2236" width="55" height="55" fill="#fcc200" /><rect x="436" y="2236" width="55" height="55" fill="#f4bb00" /><rect x="2345" y="2236" width="55" height="55" fill="#f7be00" /><rect x="0" y="2291" width="55" height="54" fill="#672ad3" /><rect x="55" y="2291" width="54" height="54" fill="#6629d1" /><rect x="109" y="2291" width="55" height="54" fill="#f2dc00" /><rect x="164" y="2291" width="54" height="54" fill="#fde600" /><rect x="218" y="2291" width="55" height="54" fill="#f9e200" /><rect x="273" y="2291" width="54" height="54" fill="#fd2d54" /><rect x="382" y="2291" width="54" height="54" fill="#ffe800" /><rect x="0" y="2345" width="55" height="55" fill="#2c77f5" /><rect x="55" y="2345" width="54" height="55" fill="#371ccd" /><rect x="109" y="2345" width="55" height="55" fill="#f800a4" /><rect x="164" y="2345" width="54" height="55" fill="#f3dd00" /><rect x="218" y="2345" width="55" height="55" fill="#f600a2" /><rect x="273" y="2345" width="54" height="55" fill="#f9bf00" /><rect x="327" y="2345" width="55" height="55" fill="#fee700" /><rect x="927" y="2345" width="55" height="55" fill="#f09500" /></g></svg>